<svg height="814" width="720" xmlns="http://www.w3.org/2000/svg">
<rect height="814" fill="#555" width="720"></rect>
<text fill="#7f7" font-family="Courier New" font-size="12" xml:space="preserve">
<tspan x="10" y="26">4 megabytes installed</tspan>
<tspan x="10" y="42"></tspan>
<tspan x="10" y="58">node_modules</tspan>
<tspan x="10" y="74">└─┬ purify-css@1.1.9 </tspan>
<tspan x="10" y="90">  ├─┬ clean-css@3.4.25 </tspan>
<tspan x="10" y="106">  │ ├─┬ commander@2.8.1 </tspan>
<tspan x="10" y="122">  │ │ └── graceful-readlink@1.0.1 </tspan>
<tspan x="10" y="138">  │ └─┬ source-map@0.4.4 </tspan>
<tspan x="10" y="154">  │   └── amdefine@1.0.1 </tspan>
<tspan x="10" y="170">  ├─┬ glob@6.0.4 </tspan>
<tspan x="10" y="186">  │ ├─┬ inflight@1.0.6 </tspan>
<tspan x="10" y="202">  │ │ └── wrappy@1.0.2 </tspan>
<tspan x="10" y="218">  │ ├── inherits@2.0.3 </tspan>
<tspan x="10" y="234">  │ ├─┬ minimatch@3.0.3 </tspan>
<tspan x="10" y="250">  │ │ └─┬ brace-expansion@1.1.7 </tspan>
<tspan x="10" y="266">  │ │   ├── balanced-match@0.4.2 </tspan>
<tspan x="10" y="282">  │ │   └── concat-map@0.0.1 </tspan>
<tspan x="10" y="298">  │ ├── once@1.4.0 </tspan>
<tspan x="10" y="314">  │ └── path-is-absolute@1.0.1 </tspan>
<tspan x="10" y="330">  ├─┬ rework@1.0.1 </tspan>
<tspan x="10" y="346">  │ ├── convert-source-map@0.3.5 </tspan>
<tspan x="10" y="362">  │ └─┬ css@2.2.1 </tspan>
<tspan x="10" y="378">  │   ├── source-map@0.1.43 </tspan>
<tspan x="10" y="394">  │   ├─┬ source-map-resolve@0.3.1 </tspan>
<tspan x="10" y="410">  │   │ ├── atob@1.1.3 </tspan>
<tspan x="10" y="426">  │   │ ├── resolve-url@0.2.1 </tspan>
<tspan x="10" y="442">  │   │ └── source-map-url@0.3.0 </tspan>
<tspan x="10" y="458">  │   └── urix@0.1.0 </tspan>
<tspan x="10" y="474">  ├─┬ uglifyjs@2.4.10 </tspan>
<tspan x="10" y="490">  │ ├── async@0.2.10 </tspan>
<tspan x="10" y="506">  │ ├── source-map@0.1.34 </tspan>
<tspan x="10" y="522">  │ ├── uglify-to-browserify@1.0.2 </tspan>
<tspan x="10" y="538">  │ └── yargs@1.3.3 </tspan>
<tspan x="10" y="554">  └─┬ yargs@3.32.0 </tspan>
<tspan x="10" y="570">    ├── camelcase@2.1.1 </tspan>
<tspan x="10" y="586">    ├─┬ cliui@3.2.0 </tspan>
<tspan x="10" y="602">    │ ├─┬ strip-ansi@3.0.1 </tspan>
<tspan x="10" y="618">    │ │ └── ansi-regex@2.1.1 </tspan>
<tspan x="10" y="634">    │ └── wrap-ansi@2.1.0 </tspan>
<tspan x="10" y="650">    ├── decamelize@1.2.0 </tspan>
<tspan x="10" y="666">    ├─┬ os-locale@1.4.0 </tspan>
<tspan x="10" y="682">    │ └─┬ lcid@1.0.0 </tspan>
<tspan x="10" y="698">    │   └── invert-kv@1.0.0 </tspan>
<tspan x="10" y="714">    ├─┬ string-width@1.0.2 </tspan>
<tspan x="10" y="730">    │ ├── code-point-at@1.1.0 </tspan>
<tspan x="10" y="746">    │ └─┬ is-fullwidth-code-point@1.0.0 </tspan>
<tspan x="10" y="762">    │   └── number-is-nan@1.0.1 </tspan>
<tspan x="10" y="778">    ├── window-size@0.1.4 </tspan>
<tspan x="10" y="794">    └── y18n@3.2.1</tspan>
</text>
</svg>
